<?xml version="1.0" encoding="UTF-8"?>
<svg id="Layer_1" data-name="Layer 1" xmlns="http://www.w3.org/2000/svg" version="1.1" viewBox="0 0 132.71 114.07">
  <defs>
    <style>
      .cls-1 {
        fill: #fff;
        stroke-width: 0px;
      }
    </style>
  </defs>
  <path class="cls-1" d="M46.82,76.85h45.38c1.02,0,1.84-.82,1.84-1.84s-.82-1.84-1.84-1.84h-45.38c-1.02,0-1.84.82-1.84,1.84s.82,1.84,1.84,1.84Z"/>
  <path class="cls-1" d="M44,91.8h51.02c1.02,0,1.84-.82,1.84-1.84s-.82-1.84-1.84-1.84h-49.53s-.74-3.46-.74-3.46l6.18-14.52c.24-.57.18-1.22-.15-1.73-.34-.51-.91-.83-1.53-.83h-.83S31.77,22.45,31.77,22.45c-.27-.72-.96-1.2-1.73-1.2h-13.26c-1.02,0-1.84.82-1.84,1.84s.82,1.84,1.84,1.84h11.98s16.65,45.12,16.65,45.12c.19.52.6.91,1.1,1.09l-5.38,12.62c-.15.35-.19.73-.11,1.1l1.17,5.48c.18.85.93,1.45,1.8,1.45Z"/>
  <path class="cls-1" d="M38.13,36.8h66.57s-8.9,29.8-8.9,29.8h-46.76c-.05-.03-.11-.07-.16-.11l-10.75-29.68M33.17,30.12c-2.52,0-3.88,1.94-3.02,4.31l12.52,34.56c.86,2.37,3.62,4.31,6.14,4.31h47.39c2.52,0,5.17-1.97,5.89-4.39l10.27-34.39c.72-2.41-.75-4.39-3.27-4.39H33.17Z"/>
  <rect class="cls-1" x="73.65" y="50.2" width="35.62" height="3.73" transform="translate(26.27 134.69) rotate(-81.38)"/>
  <rect class="cls-1" x="60.3" y="50.2" width="35.25" height="3.73" transform="translate(22.75 127.82) rotate(-87.69)"/>
  <rect class="cls-1" x="63.22" y="34.42" width="3.73" height="35.29" transform="translate(-3.12 4.15) rotate(-3.57)"/>
  <rect class="cls-1" x="50.54" y="33.94" width="3.73" height="36.25" transform="translate(-10.85 13.91) rotate(-13.72)"/>
  <rect class="cls-1" x="36.39" y="44.29" width="68.77" height="3.73"/>
  <rect class="cls-1" x="41.64" y="55.5" width="61.73" height="3.64"/>
  <rect class="cls-1" x="4.94" y="19.84" width="15.55" height="6.34" rx="2.84" ry="2.84"/>
  <g>
    <path class="cls-1" d="M55.33,102.41c1.02,0,1.84-.82,1.84-1.84v-10.27c0-1.02-.82-1.84-1.84-1.84s-1.84.82-1.84,1.84v10.27c0,1.02.82,1.84,1.84,1.84Z"/>
    <path class="cls-1" d="M48.01,101.19c0,4.11,3.33,7.44,7.44,7.44h0c4.11,0,7.44-3.33,7.44-7.44h0c0-4.11-3.33-7.44-7.44-7.44h0c-4.11,0-7.44,3.33-7.44,7.44h0Z"/>
    <path class="cls-1" d="M51.34,101.19c0,2.27,1.84,4.11,4.11,4.11h0c2.27,0,4.11-1.84,4.11-4.11h0c0-2.27-1.84-4.11-4.11-4.11h0c-2.27,0-4.11,1.84-4.11,4.11h0Z"/>
    <path class="cls-1" d="M53.73,101.19c0,.95.77,1.71,1.71,1.71h0c.94,0,1.71-.77,1.71-1.71h0c0-.95-.77-1.71-1.71-1.71h0c-.95,0-1.71.77-1.71,1.71h0Z"/>
    <path class="cls-1" d="M59,89.65c1.46,0,2.14,1.08,1.51,2.39l-3.93,8.28c-.63,1.32-1.65,1.32-2.28,0l-3.93-8.28c-.63-1.32.05-2.39,1.51-2.39h7.12Z"/>
  </g>
  <g>
    <path class="cls-1" d="M82.77,102.41c1.02,0,1.84-.82,1.84-1.84v-10.27c0-1.02-.82-1.84-1.84-1.84s-1.84.82-1.84,1.84v10.27c0,1.02.82,1.84,1.84,1.84Z"/>
    <path class="cls-1" d="M75.44,101.19c0,4.11,3.33,7.44,7.44,7.44h0c4.11,0,7.44-3.33,7.44-7.44h0c0-4.11-3.33-7.44-7.44-7.44h0c-4.11,0-7.44,3.33-7.44,7.44h0Z"/>
    <path class="cls-1" d="M78.77,101.19c0,2.27,1.84,4.11,4.11,4.11h0c2.27,0,4.11-1.84,4.11-4.11h0c0-2.27-1.84-4.11-4.11-4.11h0c-2.27,0-4.11,1.84-4.11,4.11h0Z"/>
    <path class="cls-1" d="M81.17,101.19c0,.95.77,1.71,1.71,1.71h0c.95,0,1.71-.77,1.71-1.71h0c0-.95-.77-1.71-1.71-1.71h0c-.95,0-1.71.77-1.71,1.71h0Z"/>
    <path class="cls-1" d="M86.44,89.65c1.46,0,2.14,1.08,1.51,2.39l-3.93,8.28c-.63,1.32-1.65,1.32-2.28,0l-3.93-8.28c-.63-1.32.05-2.39,1.51-2.39h7.12Z"/>
  </g>
</svg>