<?xml version="1.0" encoding="utf-8"?>
<!-- Generator: Adobe Illustrator 22.0.0, SVG Export Plug-In . SVG Version: 6.00 Build 0)  -->
<svg version="1.1" id="Layer_1" xmlns="http://www.w3.org/2000/svg" xmlns:xlink="http://www.w3.org/1999/xlink" x="0px" y="0px"
	 viewBox="0 0 132.7 114.1" style="enable-background:new 0 0 132.7 114.1;" xml:space="preserve">
<style type="text/css">
	.st0{fill:#FFFFFF;}
	.st1{fill:#28382D;stroke:#FFFFFF;stroke-width:4;stroke-miterlimit:10;}
</style>
<path class="st0" d="M48.5,75h38.8c0.9,0,1.6-0.7,1.6-1.6c0-0.9-0.7-1.6-1.6-1.6H48.5c-0.9,0-1.6,0.7-1.6,1.6
	C47,74.3,47.7,75,48.5,75z"/>
<path class="st0" d="M46.1,87.8h43.6c0.9,0,1.6-0.7,1.6-1.6s-0.7-1.6-1.6-1.6H47.4l-0.6-3l5.3-12.4c0.2-0.5,0.2-1-0.1-1.5
	c-0.3-0.4-0.8-0.7-1.3-0.7h-0.7L35.7,28.5c-0.2-0.6-0.8-1-1.5-1H22.8c-0.9,0-1.6,0.7-1.6,1.6c0,0.9,0.7,1.6,1.6,1.6h10.2l14.2,38.6
	c0.2,0.4,0.5,0.8,0.9,0.9l-4.6,10.8c-0.1,0.3-0.2,0.6-0.1,0.9l1,4.7C44.7,87.3,45.4,87.8,46.1,87.8L46.1,87.8z"/>
<path class="st0" d="M41.1,40.8h56.9l-7.6,25.5h-40c0,0-0.1-0.1-0.1-0.1L41.1,40.8 M36.9,35.1c-2.2,0-3.3,1.7-2.6,3.7L45,68.3
	c0.7,2,3.1,3.7,5.3,3.7h40.5c2.2,0,4.4-1.7,5-3.8l8.8-29.4c0.6-2.1-0.6-3.8-2.8-3.8L36.9,35.1L36.9,35.1z"/>
<rect x="71.5" y="52.2" transform="matrix(0.1499 -0.9887 0.9887 0.1499 20.5116 131.5056)" class="st0" width="30.5" height="3.2"/>
<rect x="60.1" y="52.2" transform="matrix(4.030614e-02 -0.9992 0.9992 4.030614e-02 18.3412 126.7295)" class="st0" width="30.2" height="3.2"/>
<rect x="62.6" y="38.7" transform="matrix(0.9981 -6.226794e-02 6.226794e-02 0.9981 -3.2268 4.0998)" class="st0" width="3.2" height="30.2"/>
<rect x="51.7" y="38.3" transform="matrix(0.9715 -0.2372 0.2372 0.9715 -11.2433 14.1828)" class="st0" width="3.2" height="31"/>
<rect x="39.6" y="47.2" class="st0" width="58.8" height="3.2"/>
<rect x="44.1" y="56.8" class="st0" width="52.8" height="3.1"/>
<path class="st0" d="M15.1,26.3h8.4c1.3,0,2.4,1.1,2.4,2.4v0.6c0,1.3-1.1,2.4-2.4,2.4h-8.4c-1.3,0-2.4-1.1-2.4-2.4v-0.6
	C12.7,27.3,13.8,26.3,15.1,26.3z"/>
<g>
	<path class="st0" d="M55.8,96.9c0.9,0,1.6-0.7,1.6-1.6v-8.8c0-0.9-0.7-1.6-1.6-1.6c-0.9,0-1.6,0.7-1.6,1.6v8.8
		C54.2,96.2,55,96.9,55.8,96.9z"/>
	<path class="st0" d="M49.6,95.8c0,3.5,2.8,6.4,6.4,6.4l0,0c3.5,0,6.4-2.8,6.4-6.4l0,0c0-3.5-2.8-6.4-6.4-6.4l0,0
		C52.4,89.5,49.6,92.3,49.6,95.8L49.6,95.8z"/>
	<path class="st0" d="M52.4,95.8c0,1.9,1.6,3.5,3.5,3.5l0,0c1.9,0,3.5-1.6,3.5-3.5l0,0c0-1.9-1.6-3.5-3.5-3.5l0,0
		C54,92.3,52.4,93.9,52.4,95.8L52.4,95.8z"/>
	<path class="st0" d="M54.5,95.8c0,0.8,0.7,1.5,1.5,1.5l0,0c0.8,0,1.5-0.7,1.5-1.5l0,0c0-0.8-0.7-1.5-1.5-1.5l0,0
		C55.1,94.4,54.5,95,54.5,95.8L54.5,95.8z"/>
	<path class="st0" d="M59,86c1.2,0,1.8,0.9,1.3,2l-3.4,7.1c-0.5,1.1-1.4,1.1-2,0L51.6,88c-0.5-1.1,0-2,1.3-2C52.9,86,59,86,59,86z"
		/>
</g>
<g>
	<path class="st0" d="M79.3,96.9c0.9,0,1.6-0.7,1.6-1.6v-8.8c0-0.9-0.7-1.6-1.6-1.6s-1.6,0.7-1.6,1.6v8.8
		C77.7,96.2,78.4,96.9,79.3,96.9z"/>
	<path class="st0" d="M73,95.8c0,3.5,2.8,6.4,6.4,6.4l0,0c3.5,0,6.4-2.8,6.4-6.4l0,0c0-3.5-2.8-6.4-6.4-6.4l0,0
		C75.9,89.5,73,92.3,73,95.8L73,95.8z"/>
	<path class="st0" d="M75.9,95.8c0,1.9,1.6,3.5,3.5,3.5l0,0c1.9,0,3.5-1.6,3.5-3.5l0,0c0-1.9-1.6-3.5-3.5-3.5l0,0
		C77.4,92.3,75.9,93.9,75.9,95.8L75.9,95.8z"/>
	<path class="st0" d="M77.9,95.8c0,0.8,0.7,1.5,1.5,1.5l0,0c0.8,0,1.5-0.7,1.5-1.5l0,0c0-0.8-0.7-1.5-1.5-1.5l0,0
		C78.6,94.4,77.9,95,77.9,95.8L77.9,95.8z"/>
	<path class="st0" d="M82.4,86c1.2,0,1.8,0.9,1.3,2l-3.4,7.1c-0.5,1.1-1.4,1.1-2,0L75.1,88c-0.5-1.1,0-2,1.3-2
		C76.3,86,82.4,86,82.4,86z"/>
</g>
<rect x="67" y="-4.1" transform="matrix(0.8296 0.5584 -0.5584 0.8296 44.3925 -29.9164)" class="st1" width="8.5" height="123.8"/>
</svg>